<svg xmlns="http://www.w3.org/2000/svg" viewBox="0 0 92.76 103.56"><defs><style>.cls-1{fill:#fff;}.cls-2{fill:none;}</style></defs><title>자산 25</title><g id="레이어_2" data-name="레이어 2"><g id="레이어_1-2" data-name="레이어 1"><polygon points="81.77 84.76 13.96 84.76 13.96 16.95 77.94 16.95 81.77 84.76"/><path d="M79.25,17.51V83.34H16.93V17.51ZM45.66,35.1A15.15,15.15,0,0,0,49,37.2a47.87,47.87,0,0,0,8.77,2.11A133.43,133.43,0,0,0,71.3,40c1.76,0,3.6,0,4.9-2,1.11-1.64,1.29-2-.39-3-3.34-2-6.72-3.91-10-6a11.42,11.42,0,0,0-8.76-1.52c-3,.58-6,1.33-9,2a34.93,34.93,0,0,1,2-3.35c.66-.88,1.22-1.77.24-2.55s-1.75.25-2.43.91a1.44,1.44,0,0,0-.28.37c-1.33,2.61-2.78,5.17-3.94,7.86-1,2.39-1.75,4.92-2.59,7.34A20.61,20.61,0,0,0,39.9,81.16c13.17,1.24,21.82-8.33,22.85-17.8C64.08,51.12,56,41.54,44,40Z"/><path class="cls-1" d="M79.25,17.51H16.93V83.34H79.25a5.17,5.17,0,0,1-1.25.3H16.52V17.19q30.73,0,61.48,0A5.17,5.17,0,0,1,79.25,17.51Z"/><path class="cls-1" d="M45.66,35.1,44,40c12,1.51,20.11,11.09,18.78,23.33-1,9.47-9.68,19-22.85,17.8a20.61,20.61,0,0,1,1.18-41c.84-2.42,1.56-5,2.59-7.34,1.16-2.69,2.61-5.25,3.94-7.86a1.44,1.44,0,0,1,.28-.37c.68-.66,1.35-1.77,2.43-.91s.42,1.67-.24,2.55a34.93,34.93,0,0,0-2,3.35c3-.69,6-1.44,9-2A11.42,11.42,0,0,1,65.83,29c3.26,2.11,6.64,4,10,6,1.68,1,1.5,1.32.39,3-1.3,1.92-3.14,2-4.9,2a133.43,133.43,0,0,1-13.57-.65A47.87,47.87,0,0,1,49,37.2,15.15,15.15,0,0,1,45.66,35.1Zm-3.38,7.56c-10-.42-17.55,8.25-18,16.65a18.15,18.15,0,1,0,36.25,1.32A17.79,17.79,0,0,0,42.28,42.66ZM47.85,33c1.54,2.25,3.94,2.39,6.06,2.92a43.31,43.31,0,0,0,7.14,1.13c3.38.27,6.78.3,10.17.37A10.34,10.34,0,0,0,73.29,37c-1.6-1-3-1.89-4.47-2.75-2.35-1.41-4.58-3.21-7.13-4-1.84-.6-4.14-.1-6.18.24A22,22,0,0,0,47.85,33Z"/><path d="M42.28,42.66a18.11,18.11,0,1,1,0,36.21A18.06,18.06,0,0,1,24.23,59.31C24.73,50.91,32.33,42.24,42.28,42.66Zm1.9,7.54c-.62.78-1.25,1.25-1.19,1.56s.67.87,1.13,1.09c.17.07.91-.54.9-.81A6.15,6.15,0,0,0,44.18,50.2Zm9.21,5c-.8-.52-1.27-1-1.69-1s-.68.71-1,1.1a4.5,4.5,0,0,0,1.34.93C52.26,56.33,52.68,55.8,53.39,55.25Zm-7,3.64c-.62.79-1.24,1.26-1.17,1.57a2,2,0,0,0,1.14,1.08c.16.07.9-.54.89-.82A6.31,6.31,0,0,0,46.34,58.89ZM57.75,63.8c-.77-.6-1.18-1.18-1.61-1.18s-.74.64-1.11,1c.41.37.76.87,1.24,1C56.52,64.74,57,64.26,57.75,63.8Zm-5.29,5.46c-.79-.53-1.25-1.08-1.67-1.05s-.69.69-1,1.07a4.69,4.69,0,0,0,1.31,1C51.31,70.31,51.74,69.79,52.46,69.26Z"/><path d="M47.85,33a22,22,0,0,1,7.66-2.56c2-.34,4.34-.84,6.18-.24,2.55.83,4.78,2.63,7.13,4,1.45.86,2.87,1.76,4.47,2.75a10.34,10.34,0,0,1-2.07.43c-3.39-.07-6.79-.1-10.17-.37a43.31,43.31,0,0,1-7.14-1.13C51.79,35.41,49.39,35.27,47.85,33Zm3.9-.51v.74c.53,0,1.06.09,1.59.09,4.41-.05,8.83-.24,13,1.78.37.18.94-.08,1.42-.13C62.61,31.81,57.16,32.36,51.75,32.51Z"/><path class="cls-1" d="M44.18,50.2A6.15,6.15,0,0,1,45,52c0,.27-.73.88-.9.81-.46-.22-1-.65-1.13-1.09S43.56,51,44.18,50.2Z"/><path class="cls-1" d="M53.39,55.25c-.71.55-1.13,1.08-1.37,1a4.5,4.5,0,0,1-1.34-.93c.34-.39.65-1.07,1-1.1S52.59,54.73,53.39,55.25Z"/><path class="cls-1" d="M46.34,58.89a6.31,6.31,0,0,1,.86,1.83c0,.28-.73.89-.89.82a2,2,0,0,1-1.14-1.08C45.1,60.15,45.72,59.68,46.34,58.89Z"/><path class="cls-1" d="M57.75,63.8c-.77.46-1.23.94-1.48.85-.48-.17-.83-.67-1.24-1,.37-.35.75-1,1.11-1S57,63.2,57.75,63.8Z"/><path class="cls-1" d="M52.46,69.26c-.72.53-1.15,1-1.4,1a4.69,4.69,0,0,1-1.31-1c.35-.38.67-1,1-1.07S51.67,68.73,52.46,69.26Z"/><path class="cls-1" d="M51.75,32.51c5.41-.15,10.86-.7,16,2.48-.48,0-1,.31-1.42.13-4.13-2-8.55-1.83-13-1.78-.53,0-1.06-.06-1.59-.09Z"/><polygon class="cls-2" points="16.92 16.95 16.92 40.65 16.92 41.16 16.92 50.91 16.92 52.32 16.92 62.74 16.92 82.23 28.18 82.23 78.72 82.23 78.72 82.23 78.72 46.03 78.72 16.95 30.89 16.95 16.92 16.95"/><polygon class="cls-2" points="16.92 16.95 16.92 40.65 16.92 41.16 16.92 50.91 16.92 52.32 16.92 62.74 16.92 82.23 28.18 82.23 78.72 82.23 78.72 82.23 78.72 46.03 78.72 16.95 30.89 16.95 16.92 16.95"/><polygon class="cls-2" points="16.92 16.95 16.92 40.65 16.92 41.16 16.92 50.91 16.92 52.32 16.92 62.74 16.92 82.23 28.18 82.23 78.72 82.23 78.72 82.23 78.72 46.03 78.72 16.95 30.89 16.95 16.92 16.95"/><path d="M91.43,26.05A10.29,10.29,0,0,0,87.51,22L51.79,1.38A10.34,10.34,0,0,0,46.64,0h-.56a10.34,10.34,0,0,0-5.15,1.38L14,17,5.21,22A10.29,10.29,0,0,0,.66,27.45,10.22,10.22,0,0,0,0,31.09V72.41a10.29,10.29,0,0,0,.19,1.86c0,.33.12.66.2,1a10.3,10.3,0,0,0,4.82,6.3l35.72,20.62a10.25,10.25,0,0,0,5.15,1.39h.37a10.25,10.25,0,0,0,5.15-1.39L87.32,81.55a9.94,9.94,0,0,0,1.4-1,10.28,10.28,0,0,0,4-8.19V31.12A10.19,10.19,0,0,0,91.43,26.05ZM77.72,82.24H18.79V21.05H77.94l3.82-2.36-3-1.74Z"/><polygon class="cls-2" points="77.94 21.05 18.79 21.05 18.79 82.23 27.18 82.23 78.04 83.23 79.04 17.95 77.94 16.95 77.94 21.05"/></g></g></svg>